<svg width="30" height="26" viewBox="0 0 30 26" fill="none" xmlns="http://www.w3.org/2000/svg">
<path d="M29.9753 11.9291C29.4654 4.57676 21.5614 -1.08961 12.4576 0.178041C6.18842 1.05272 1.16408 5.35002 0.189204 10.6487C-0.380722 13.7164 0.36921 16.6194 2.004 19.0152L0.669156 23.2111C0.369195 24.1619 1.40403 25.0239 2.51388 24.7577L7.40326 23.6168C9.62297 24.7196 12.2176 25.3534 14.9923 25.3534C23.4512 25.3534 30.4703 19.0532 29.9753 11.9291ZM22.3263 17.3926C22.1913 17.6208 22.0264 17.8363 21.8164 18.0391C21.4414 18.3814 21.0365 18.6349 20.5866 18.787C20.1366 18.9518 19.6417 19.0279 19.1167 19.0279C18.3518 19.0279 17.527 18.8759 16.6721 18.559C15.8022 18.2421 14.9473 17.8236 14.0924 17.3039C13.2225 16.7715 12.4126 16.1757 11.6327 15.5292C10.8528 14.87 10.1629 14.1728 9.53295 13.4502C8.91803 12.7277 8.42313 12.0051 8.06317 11.2826C7.70322 10.56 7.52328 9.86286 7.52328 9.20369C7.52328 8.77267 7.61325 8.35435 7.79322 7.97406C7.9732 7.58109 8.25819 7.22616 8.66314 6.90925C9.14308 6.5036 9.66798 6.31345 10.2229 6.31345C10.4329 6.31345 10.6428 6.35147 10.8378 6.42753C11.0328 6.50359 11.2128 6.61767 11.3478 6.78247L13.0875 8.8614C13.2225 9.02619 13.3275 9.16563 13.3875 9.30507C13.4625 9.44452 13.4925 9.57128 13.4925 9.69804C13.4925 9.85016 13.4325 10.0023 13.3275 10.1544C13.2225 10.3065 13.0875 10.4586 12.9076 10.6107L12.3376 11.1178C12.2476 11.1938 12.2176 11.2699 12.2176 11.3713C12.2176 11.422 12.2326 11.4727 12.2476 11.5234C12.2776 11.5741 12.2926 11.6122 12.3076 11.6502C12.4426 11.8657 12.6826 12.1319 13.0125 12.4615C13.3575 12.7911 13.7175 13.1333 14.1074 13.4629C14.5123 13.8052 14.9023 14.1094 15.3072 14.401C15.6972 14.6799 16.0271 14.87 16.2821 14.9841C16.3271 14.9968 16.3721 15.0221 16.4171 15.0348C16.4771 15.0602 16.5371 15.0602 16.6121 15.0602C16.7471 15.0602 16.837 15.0221 16.927 14.9461L17.497 14.4644C17.6919 14.2996 17.8719 14.1855 18.0369 14.1094C18.2169 14.0207 18.3818 13.97 18.5768 13.97C18.7268 13.97 18.8768 13.9953 19.0418 14.0587C19.2067 14.1221 19.3867 14.1982 19.5667 14.3122L22.0564 15.8081C22.2513 15.9222 22.3863 16.0616 22.4763 16.2137C22.5513 16.3785 22.5963 16.5306 22.5963 16.7081C22.5063 16.9236 22.4463 17.1644 22.3263 17.3926Z" fill="black"/>
</svg>
