<svg width="50" height="48" viewBox="0 0 50 48" fill="none" xmlns="http://www.w3.org/2000/svg">
<path d="M19.8795 19.9377C19.8795 21.164 20.241 21.3457 21.0602 21.6182L22.2892 22.0269V18.1665H21.5663C20.6506 18.1665 19.8795 18.9613 19.8795 19.9377Z" fill="#292D32"/>
<path d="M25.9036 30.658H26.6265C27.5662 30.658 28.3132 29.8632 28.3132 28.8868C28.3132 27.6605 27.9518 27.4789 27.1325 27.2064L25.9036 26.7976V30.658Z" fill="#292D32"/>
<path d="M42.3614 9.60561L37.4217 14.2608C37.0602 14.6014 36.6024 14.7604 36.1446 14.7604C35.6867 14.7604 35.2289 14.6014 34.8675 14.2608C34.1687 13.6023 34.1687 12.5123 34.8675 11.8537L39.8072 7.19853C35.5663 3.79229 30.0964 1.70312 24.0964 1.70312C10.7952 1.70312 0 11.8764 0 24.4114C0 36.9464 10.7952 47.1197 24.0964 47.1197C37.3976 47.1197 48.1928 36.9464 48.1928 24.4114C48.1928 18.757 45.9759 13.6023 42.3614 9.60561ZM28.3133 24.0027C29.8554 24.525 31.9277 25.5695 31.9277 28.9076C31.9277 31.7462 29.5422 34.0851 26.6265 34.0851H25.9036V34.6528C25.9036 35.5839 25.0843 36.356 24.0964 36.356C23.1084 36.356 22.2892 35.5839 22.2892 34.6528V34.0851H22.0964C18.8916 34.0851 16.2651 31.5418 16.2651 28.4081C16.2651 27.4543 17.0843 26.6822 18.0723 26.6822C19.0602 26.6822 19.8795 27.4543 19.8795 28.3854C19.8795 29.6343 20.8675 30.6562 22.0964 30.6562H22.2892V25.6149L19.8795 24.8202C18.3374 24.2979 16.2651 23.2533 16.2651 19.9152C16.2651 17.0766 18.6506 14.7377 21.5663 14.7377H22.2892V14.1927C22.2892 13.2616 23.1084 12.4896 24.0964 12.4896C25.0843 12.4896 25.9036 13.2616 25.9036 14.1927V14.7604H26.0964C29.3012 14.7604 31.9277 17.3037 31.9277 20.4375C31.9277 21.3685 31.1084 22.1406 30.1205 22.1406C29.1325 22.1406 28.3133 21.3685 28.3133 20.4375C28.3133 19.1885 27.3253 18.1666 26.0964 18.1666H25.9036V23.2079L28.3133 24.0027Z" fill="#292D32"/>
<path d="M49.8554 1.04458C49.6626 0.635832 49.3253 0.295208 48.8674 0.113541C48.6506 0.0454165 48.4337 0 48.1927 0H38.5542C37.5662 0 36.7469 0.772082 36.7469 1.70312C36.7469 2.63416 37.5662 3.40624 38.5542 3.40624H43.8313L39.8072 7.19853C40.7229 7.9479 41.5662 8.74269 42.3614 9.6056L46.3855 5.81332V10.7864C46.3855 11.7175 47.2048 12.4896 48.1927 12.4896C49.1807 12.4896 50 11.7175 50 10.7864V1.70312C50 1.47604 49.9518 1.27166 49.8554 1.04458Z" fill="#292D32"/>
</svg>
