<svg width="40" height="40" viewBox="0 0 40 40" fill="none" xmlns="http://www.w3.org/2000/svg">
<path d="M28.7685 0.839952L9.64247 7.19414C-3.21416 11.4938 -3.21416 18.5046 9.64247 22.7831L15.3189 24.6682L17.2039 30.3446C21.4824 43.2012 28.5143 43.2012 32.7928 30.3446L39.1682 11.2396C42.0064 2.66148 37.3466 -2.01943 28.7685 0.839952ZM29.4463 12.2351L21.3976 20.3262C21.0799 20.6439 20.6775 20.7922 20.2751 20.7922C19.8726 20.7922 19.4702 20.6439 19.1525 20.3262C18.5382 19.7119 18.5382 18.6953 19.1525 18.081L27.2011 9.98997C27.8154 9.37574 28.832 9.37574 29.4463 9.98997C30.0605 10.6042 30.0605 11.6209 29.4463 12.2351Z" fill="white"/>
</svg>
