<svg width="25" height="22" viewBox="0 0 25 22" fill="none" xmlns="http://www.w3.org/2000/svg">
<path d="M23.7123 15.7248C23.4123 19.0623 20.9998 21.2498 17.4998 21.2498H6.24994C2.79997 21.2498 0 18.4498 0 14.9998V6.24994C0 2.84997 2.04998 0.474995 5.23745 0.0749992C5.56244 0.0249997 5.89994 0 6.24994 0H17.4998C17.8248 0 18.1373 0.0124998 18.4373 0.0624993C21.4248 0.412496 23.4498 2.49997 23.7123 5.52494C23.7498 5.88744 23.4498 6.18744 23.0873 6.18744H21.1498C19.9498 6.18744 18.8373 6.64993 18.0373 7.47492C17.0873 8.39992 16.6123 9.6999 16.7248 10.9999C16.9248 13.2749 18.9248 15.0623 21.2998 15.0623H23.0873C23.4498 15.0623 23.7498 15.3623 23.7123 15.7248Z" fill="white"/>
<path d="M25 9.33649V11.9115C25 12.599 24.45 13.1614 23.75 13.1864H21.3001C19.9501 13.1864 18.7126 12.199 18.6001 10.849C18.5251 10.0615 18.8251 9.32399 19.3501 8.81149C19.8126 8.3365 20.4501 8.06152 21.1501 8.06152H23.75C24.45 8.08652 25 8.64899 25 9.33649Z" fill="white"/>
</svg>
